<svg width="187" height="69" xmlns="http://www.w3.org/2000/svg">

 <g>
  <title>Layer 1</title>
  <g id="svg_1">
   <path stroke="null" fill="#335da3" d="m130.17999,28.06333c-3.543,0 -6.396,0.853 -8.725,2.723c-1.477,1.115 -2.689,2.46 -3.807,4.296l1.117,-5.772l-13.416,0l-6.428,38.015l14.168,0l3.805,-22.5c0.754,-4.068 2.592,-6.167 5.543,-6.036c2.23,0 3.312,1.083 3.445,3.182l-4.166,25.354l14.496,0l4.068,-24.73l0.359,-4.79c-0.098,-2.854 -1.082,-5.182 -2.951,-7.019c-1.834,-1.87 -4.426,-2.723 -7.508,-2.723z"/>
   <path stroke="null" fill="#329fdd" d="m130.93399,9.50033c-1.043,0.605 -0.793,2.575 0.359,5.149c4.031,9.003 9.611,16.367 16.729,21.91c-0.723,-3.575 -0.492,-6.527 0.754,-9.118c1.215,-2.558 3.443,-4.296 6.658,-5.149l-0.393,-2.46c-5.543,-5.051 -11.896,-8.915 -19.057,-10.823c-1.545,-0.414 -3.367,-0.488 -5.05,0.491z"/>
   <path stroke="null" fill="#e0a45b" d="m158.87699,21.04533c2.559,4.33 4.297,8.363 5.281,12.332l0.131,0.722l0.23,0.755c3.213,1.345 6.527,1.968 9.971,1.574c3.574,-0.492 6.166,-1.968 7.74,-4.526l1.869,-4.33c-2.361,-4.296 -6.297,-7.019 -11.807,-8.003c-4.69,-0.722 -9.118,-0.23 -13.415,1.476z"/>
   <path stroke="null" fill="#335da3" d="m164.15799,33.37733c-0.984,-3.969 -2.723,-8.002 -5.281,-12.332l-0.262,-0.361l-1.346,-2.099c-0.623,-0.853 -1.049,-1.042 -1.605,-0.795c-0.584,0.257 -0.854,0.697 -0.623,1.681l0,0.36l0.393,2.46l0.1,0.853l4.428,12.201l0.492,0.984c1.475,2.329 3.082,4.296 4.689,5.773l-0.623,-6.888l-0.23,-1.115l-0.132,-0.722z"/>
   <path stroke="null" fill="#ce5a36" d="m158.87699,21.04533c4.297,-1.706 8.725,-2.198 13.416,-1.476c5.51,0.984 9.445,3.707 11.807,8.003c3.543,-9.479 4.074,-17.482 0.854,-23.747c-0.57,-1.109 -1.463,-2.072 -2.461,-2.82c-1.953,-1.463 -4.279,-1.212 -6.756,0c-9.855,4.823 -15.875,10.823 -17.975,18.072l0.854,1.607l0.261,0.361z"/>
   <path stroke="null" fill="#43a756" d="m155.53299,23.14433l-0.1,-0.853c-3.215,0.853 -5.443,2.592 -6.658,5.149c-1.246,2.591 -1.477,5.543 -0.754,9.118l2.592,1.738c2.594,0.79 5.164,1.219 7.641,0.361l2.199,-2.329l-0.492,-0.984l-4.428,-12.2z"/>
   <path stroke="null" fill="#8bbe5b" d="m150.61299,38.29733l-2.592,-1.738c2.592,6.659 6.365,11.758 11.84,14.399c0.809,0.391 1.834,0.404 2.689,0.131c0.555,-0.178 0.867,-0.818 1.115,-1.344c0.855,-1.812 1.213,-4.33 1.477,-7.643c-1.607,-1.477 -3.215,-3.444 -4.689,-5.773l-2.199,2.329c-2.336,0.885 -4.951,0.401 -7.641,-0.361z"/>
   <path stroke="null" fill="#f2ca3c" d="m174.75199,48.36533c0.979,0.105 1.777,-0.426 2.461,-0.982c2.766,-2.266 4.848,-5.029 6.133,-8.496c1.404,-3.783 1.607,-7.478 0.754,-11.315l-1.869,4.33c-1.574,2.558 -4.166,4.034 -7.74,4.526c-3.443,0.394 -6.758,-0.229 -9.971,-1.574l0,0.36l0.623,6.888c2.197,2.328 4.889,4.361 8.002,5.771c0.511,0.233 1.05,0.434 1.607,0.492z"/>
   <path stroke="null" fill="#335da3" d="m99.41399,55.51633c0.262,-4.428 -1.477,-7.74 -5.15,-10.102c-2.229,-1.346 -5.411,-2.461 -9.609,-3.312c-4.428,-0.854 -6.625,-1.969 -6.625,-3.313c0,-1.869 1.705,-2.722 5.149,-2.46c2.952,0.099 5.051,1.476 6.297,4.166l11.185,-2.591c-2.461,-6.494 -7.872,-9.971 -16.367,-10.332c-5.543,-0.131 -9.971,0.754 -13.415,2.854c-4.297,2.329 -6.396,5.904 -6.527,10.923c-0.131,5.805 4.559,9.871 14.268,12.201c4.69,1.213 7.019,2.459 7.019,3.805c0,1.836 -1.837,2.59 -5.412,2.459c-3.805,0 -6.396,-1.574 -7.741,-4.789l-11.578,2.592c2.722,7.512 9.118,11.314 19.188,11.314c5.051,0 9.249,-0.982 12.824,-3.082c4.033,-2.329 6.264,-5.775 6.494,-10.333zm81.111,-4.69l0.131,-0.853l-3.576,0l-0.131,0.853l1.246,0l-0.623,3.936l0.985,0l0.722,-3.936l1.246,0zm-0.263,3.936l0.886,0l0.721,-3.936l0.623,3.936l0.623,0l1.969,-3.936l-0.623,3.936l0.984,0l0.852,-4.789l-1.608,0l-1.474,2.951l-0.592,-2.951l-1.475,0l-0.886,4.789zm-162.648,-9.217l1.345,-4.689c0.853,-1.345 2.099,-2.067 3.673,-2.067c1.968,0 2.952,1.083 3.083,3.182l-0.131,2.723l-3.936,22.631l14.038,0l3.707,-21.779l1.345,-4.689c0.853,-1.345 1.968,-2.067 3.575,-2.067c1.968,0 2.952,1.083 3.05,3.182l-0.229,2.723l-3.706,22.631l14.398,0l4.198,-24.863l0.229,-3.804c-0.229,-7.019 -3.805,-10.594 -10.561,-10.594c-5.182,0 -9.118,2.362 -11.939,7.019c-1.476,-4.657 -4.559,-7.019 -9.249,-7.019c-3.182,0 -6.002,0.984 -8.593,2.952l-3.445,4.065l0.853,-5.772l-12.792,0l-6.527,38.015l14.038,0l3.576,-21.78zm126.085,14.379c0.627,0 1.238,0.16 1.836,0.48a3.435,3.435 0 0 1 1.395,1.381a3.8,3.8 0 0 1 0.498,1.871c0,0.643 -0.162,1.262 -0.492,1.854c-0.328,0.594 -0.787,1.055 -1.379,1.383s-1.211,0.492 -1.857,0.492s-1.266,-0.164 -1.855,-0.492a3.485,3.485 0 0 1 -1.383,-1.383a3.758,3.758 0 0 1 -0.494,-1.854c0,-0.65 0.166,-1.273 0.502,-1.871c0.334,-0.6 0.799,-1.059 1.396,-1.381a3.831,3.831 0 0 1 1.833,-0.48zm0,0.617c-0.523,0 -1.033,0.135 -1.529,0.402c-0.496,0.27 -0.885,0.654 -1.166,1.152c-0.279,0.5 -0.42,1.02 -0.42,1.561c0,0.537 0.139,1.051 0.414,1.545c0.275,0.492 0.66,0.877 1.154,1.152s1.01,0.414 1.547,0.414s1.055,-0.139 1.549,-0.414s0.877,-0.66 1.15,-1.152a3.15,3.15 0 0 0 0.41,-1.545c0,-0.541 -0.139,-1.061 -0.416,-1.561a2.894,2.894 0 0 0 -1.164,-1.152a3.2,3.2 0 0 0 -1.529,-0.402zm-1.637,5.176l0,-4.014l1.379,0c0.473,0 0.814,0.035 1.025,0.109s0.377,0.205 0.504,0.389a1.066,1.066 0 0 1 -0.126,1.356c-0.209,0.219 -0.486,0.34 -0.832,0.367c0.141,0.059 0.256,0.129 0.34,0.211c0.162,0.16 0.359,0.424 0.594,0.797l0.49,0.785l-0.791,0l-0.357,-0.633c-0.279,-0.496 -0.504,-0.809 -0.676,-0.934c-0.119,-0.092 -0.293,-0.139 -0.52,-0.139l-0.381,0l0,1.705l-0.649,0l0,0.001zm0.649,-2.258l0.787,0c0.375,0 0.631,-0.057 0.768,-0.168s0.205,-0.262 0.205,-0.447a0.534,0.534 0 0 0 -0.1,-0.318a0.58,0.58 0 0 0 -0.273,-0.209c-0.117,-0.047 -0.334,-0.068 -0.65,-0.068l-0.736,0l0,1.21l-0.001,0z"/>
  </g>
 </g>
</svg>